<?xml version="1.0" encoding="UTF-8" standalone="no"?>
<svg
   xmlns:dc="http://purl.org/dc/elements/1.1/"
   xmlns:cc="http://creativecommons.org/ns#"
   xmlns:rdf="http://www.w3.org/1999/02/22-rdf-syntax-ns#"
   xmlns:svg="http://www.w3.org/2000/svg"
   xmlns="http://www.w3.org/2000/svg"
   xmlns:sodipodi="http://sodipodi.sourceforge.net/DTD/sodipodi-0.dtd"
   xmlns:inkscape="http://www.inkscape.org/namespaces/inkscape"
   inkscape:version="1.0 (4035a4fb49, 2020-05-01)"
   sodipodi:docname="wmcat_white.svg"
   xml:space="preserve"
   style="enable-background:new 0 0 593 104.7;"
   viewBox="0 0 593 104.7"
   y="0px"
   x="0px"
   id="Layer_1"
   version="1.1"><metadata
   id="metadata47"><rdf:RDF><cc:Work
       rdf:about=""><dc:format>image/svg+xml</dc:format><dc:type
         rdf:resource="http://purl.org/dc/dcmitype/StillImage" /><dc:title></dc:title></cc:Work></rdf:RDF></metadata><defs
   id="defs45" /><sodipodi:namedview
   inkscape:current-layer="Layer_1"
   inkscape:window-maximized="0"
   inkscape:window-y="0"
   inkscape:window-x="0"
   inkscape:cy="52.349998"
   inkscape:cx="296.5"
   inkscape:zoom="1.7689713"
   showgrid="false"
   id="namedview43"
   inkscape:window-height="480"
   inkscape:window-width="820"
   inkscape:pageshadow="2"
   inkscape:pageopacity="0"
   guidetolerance="10"
   gridtolerance="10"
   objecttolerance="10"
   borderopacity="1"
   bordercolor="#666666"
   pagecolor="#ffffff" />
<style
   id="style2"
   type="text/css">
	.st0{fill:#FFFFFF;}
</style>
<polygon
   id="polygon4"
   points="260.3,83 292.8,18.4 327.4,83 "
   class="st0" />
<g
   id="g40">
	<path
   id="path6"
   d="M230.1,50.6L243.6,28c-3.9-4.4-9-7.9-15-10c-6.7-2.2-13.5-2.3-19.9-0.6l0,0c0,0-0.1,0-0.1,0c0,0-0.1,0-0.1,0   c0,0,0,0,0,0c-0.2,0.1-0.4,0.1-0.7,0.2c-0.6,0.2-1.2,0.4-1.9,0.6c-0.3,0.1-0.6,0.2-0.9,0.3c-0.1,0-0.1,0-0.2,0.1   c0.1,0,0.1,0,0.2-0.1c0,0,0,0,0,0c-0.1,0-0.1,0-0.2,0.1c-0.1,0-0.2,0.1-0.3,0.1c-3,1.2-5.8,2.8-8.3,4.8c0,0-0.1,0.1-0.1,0.1   c0,0,0,0-0.1,0.1c-0.1,0.1-0.2,0.2-0.3,0.3c-0.2,0.2-0.5,0.4-0.7,0.6c-0.2,0.2-0.5,0.4-0.7,0.6c-0.1,0.1-0.1,0.1-0.2,0.2   c-0.2,0.2-0.3,0.3-0.5,0.5c-0.2,0.2-0.4,0.3-0.5,0.5c-0.1,0.1-0.2,0.2-0.3,0.3c0,0,0,0,0,0c-0.1,0.1-0.1,0.1-0.2,0.2c0,0,0,0,0,0   c-0.1,0.1-0.2,0.2-0.3,0.3c-0.3,0.4-0.7,0.7-1,1.1c-0.1,0.1-0.1,0.1-0.2,0.2c-2.4,2.9-4.5,6.3-5.9,10c0,0,0,0,0,0   c-0.2,0.4-0.3,0.8-0.5,1.3c-0.1,0.2-0.1,0.3-0.2,0.5c0,0,0,0.1,0,0.1c-0.2,0.6-0.3,1.2-0.5,1.7c0,0,0,0,0,0.1   c-1.1,4.4-1.4,8.8-0.8,13c0,0,0,0.1,0,0.1c0.1,0.8,0.2,1.6,0.4,2.3c0,0.2,0.1,0.4,0.1,0.6c0,0.1,0.1,0.2,0.1,0.3   c0.1,0.4,0.2,0.8,0.3,1.1c0,0.1,0.1,0.2,0.1,0.4c0.1,0.4,0.2,0.8,0.4,1.2c0,0.1,0.1,0.3,0.1,0.4c0.1,0.2,0.2,0.5,0.2,0.7   c0.2,0.6,0.5,1.3,0.8,1.9c0,0,0,0.1,0,0.1c0,0.1,0.1,0.2,0.1,0.2c0,0.1,0.1,0.2,0.1,0.3c0.3,0.7,0.6,1.3,0.9,1.9   c0.1,0.2,0.2,0.4,0.3,0.6c0,0.1,0.1,0.1,0.1,0.2c0.2,0.4,0.5,0.9,0.8,1.3c0.1,0.1,0.2,0.2,0.2,0.4c0.1,0.2,0.2,0.3,0.3,0.5   c0.1,0.1,0.1,0.2,0.2,0.3c0,0,0,0,0,0c0,0,0,0.1,0.1,0.1c0,0,0,0,0,0c0,0,0-0.1-0.1-0.1c0.2,0.4,0.5,0.7,0.7,1.1   c-0.1-0.2-0.2-0.3-0.4-0.5c0,0,0,0,0,0c0.1,0.2,0.2,0.3,0.4,0.5c0,0,0,0,0,0c0.1,0.1,0.2,0.3,0.3,0.4c0.1,0.1,0.2,0.2,0.3,0.4   c0.2,0.3,0.4,0.5,0.6,0.8c0,0,0,0,0,0c0.1,0.1,0.2,0.3,0.3,0.4c0,0,0,0,0,0c-0.1-0.1-0.2-0.3-0.3-0.4c0.1,0.1,0.2,0.3,0.3,0.4   c0,0.1,0.1,0.1,0.1,0.2c0.3,0.3,0.6,0.7,0.9,1c0.1,0.1,0.2,0.3,0.4,0.4c0.2,0.2,0.3,0.3,0.5,0.5c0,0,0,0,0,0c0,0,0,0,0,0   c0,0,0,0,0.1,0.1c0.1,0.1,0.1,0.1,0.2,0.2c0.2,0.2,0.4,0.4,0.6,0.6c0.2,0.2,0.4,0.4,0.6,0.6c0.2,0.2,0.4,0.4,0.6,0.5   c0.2,0.2,0.4,0.4,0.6,0.5c0.2,0.2,0.4,0.3,0.6,0.5c0.2,0.2,0.5,0.4,0.7,0.5c0.2,0.1,0.4,0.3,0.6,0.4c0.1,0.1,0.2,0.2,0.4,0.3   c0.1,0.1,0.2,0.1,0.3,0.2c0,0,0,0,0,0c-0.1-0.1-0.2-0.1-0.3-0.2c0.1,0.1,0.2,0.1,0.3,0.2c0.3,0.2,0.7,0.4,1,0.7   c0.1,0.1,0.3,0.2,0.4,0.3c0,0,0,0,0,0c0.1,0,0.1,0.1,0.2,0.1c0,0,0,0,0,0c-0.1,0-0.1-0.1-0.2-0.1c0.1,0,0.2,0.1,0.2,0.1   c0.4,0.2,0.8,0.5,1.2,0.7c0.1,0,0.2,0.1,0.3,0.2c-0.1,0-0.1-0.1-0.2-0.1c0,0,0,0,0,0c0.1,0,0.2,0.1,0.2,0.1c0,0,0,0,0,0   c0,0,0.1,0,0.1,0.1c0,0,0,0,0,0c0,0,0,0,0,0c0,0,0,0,0,0c0,0,0,0,0,0c0.2,0.1,0.3,0.2,0.5,0.2c0.4,0.2,0.9,0.4,1.3,0.6   c0.2,0.1,0.5,0.2,0.8,0.3c0.4,0.2,0.7,0.3,1.1,0.4c0.1,0,0.2,0.1,0.3,0.1c-0.1,0-0.2-0.1-0.3-0.1c0,0,0,0,0,0   c0.1,0,0.2,0.1,0.3,0.1c0.2,0.1,0.4,0.1,0.5,0.2c0.2,0.1,0.3,0.1,0.5,0.2c0.2,0.1,0.4,0.1,0.6,0.2c0.1,0,0.2,0.1,0.3,0.1   c0,0,0.1,0,0.1,0c0.6,0.2,1.2,0.4,1.9,0.5c0.1,0,0.2,0,0.2,0.1c0,0,0,0,0,0c0,0,0,0,0,0c0,0,0,0,0,0c0,0,0,0,0,0c0.1,0,0.1,0,0.1,0   l9.9-16.6l6.3-10.6l-16.2,27.2c2.5,0.6,5.1,0.9,7.7,0.9c8.9,0,17.7-3.4,24.5-10.1c0.9-0.9,2.2-2.5,2.2-2.5L230.1,50.6z M199.6,80.3   c-0.1,0-0.1-0.1-0.2-0.1c0,0,0,0,0,0C199.5,80.2,199.6,80.3,199.6,80.3z M204.1,82.6c-0.2-0.1-0.4-0.2-0.6-0.2c0,0,0,0,0,0   C203.7,82.4,203.9,82.5,204.1,82.6C204.1,82.6,204.1,82.6,204.1,82.6z"
   class="st0" />
	<polygon
   id="polygon8"
   points="91.2,18.2 71.2,18.2 71.2,18.2 71.2,18.2 71.2,18.2 30.6,18.2 30.6,18.2 10.5,18.2 41.1,83.5    51.1,61.9 61.2,83.5  "
   class="st0" />
	<polygon
   id="polygon10"
   points="167.4,83.5 167.4,83.5 167.4,17.9 137.1,50.7 106.9,17.9 106.9,83.5 106.9,83.5 106.9,83.5    106.9,83.5  "
   class="st0" />
	<polygon
   id="polygon12"
   points="383.5,18.7 349.4,18.7 349.4,18.7 336.2,18.7 336.2,40.3 349.4,40.3 349.4,83.6 383.5,83.6    383.5,40.3 396.7,40.3 396.7,18.7  "
   class="st0" />
	<rect
   id="rect14"
   height="87.6"
   width="1.1"
   class="st0"
   y="7"
   x="430.5" />
	<path
   id="path16"
   d="M470.7,30.2v5.5h2.4c1.1,0,3.7,0,3.7-2.8c0-2.7-2.6-2.7-3.9-2.7H470.7 M470.7,48.1h-5.6v-23h7.5   c4.3,0,5.9,0.7,7.1,1.7c1.8,1.5,2.7,3.8,2.7,6.1c0,2.3-1,4.8-2.4,6c-1.6,1.3-3.1,2-6.7,2h-2.6V48.1"
   class="st0" />
	<path
   id="path18"
   d="M491.1,48.7c-1.1,0-3.5-0.2-5.1-2.2c-1.4-1.7-1.6-3-1.6-5.3V30.8h5.2v9.6c0,1.2,0,3.5,2.8,3.5   c1.5,0,3-0.8,3-3.5v-9.5h5.2v17.3h-4.9v-1.8h-0.1C494.5,48.5,492.4,48.7,491.1,48.7"
   class="st0" />
	<path
   id="path20"
   d="M512.7,35.1c-2.7,0-4.3,2.2-4.3,4.4c0,2.4,1.6,4.5,4.2,4.5c2.6,0,4.3-2.1,4.3-4.4   C516.9,37.2,515.2,35.1,512.7,35.1 M513.4,48.7c-2.4,0-4.3-1.2-4.9-2.4h-0.1v1.8h-4.9v-23h5.2v7.1c1.8-2,4.3-2,5-2   c3.6,0,8.5,2.6,8.5,9.1C522.1,45.6,517.8,48.7,513.4,48.7"
   class="st0" />
	<rect
   id="rect22"
   height="23"
   width="5.2"
   class="st0"
   y="25.1"
   x="523.9" />
	<path
   id="path24"
   d="M536.7,29h-5.2v-3.9h5.2V29z M536.7,48.1h-5.2V30.8h5.2V48.1z"
   class="st0" />
	<path
   id="path26"
   d="M547.9,48.7c-5.2,0-9.2-4.1-9.2-9.2c0-5.1,4-9.2,9.1-9.2c4.6,0,8.3,3,9.2,7.3h-5.2c-0.6-1.2-1.6-2.4-3.7-2.4   c-0.1,0-0.1,0-0.2,0c-2.3,0-3.9,2-3.9,4.4c0,2.5,1.7,4.4,4.1,4.4c2.1,0,3.2-1.2,3.7-2.3h5.3C556,45.5,552.5,48.7,547.9,48.7"
   class="st0" />
	<path
   id="path28"
   d="M475.3,60.3l-2.4,7.9h4.8L475.3,60.3L475.3,60.3L475.3,60.3z M486.9,76.2h-6.4l-1.1-3.3h-8l-1.2,3.3h-6.3   l9.2-23h4.6L486.9,76.2"
   class="st0" />
	<path
   id="path30"
   d="M496.1,63.2c-2.2,0-4.2,1.8-4.2,4.3c0,2.8,2,4.5,4.1,4.5c2.5,0,4.2-1.8,4.2-4.3   C500.3,64.9,498.4,63.2,496.1,63.2 M495.7,83.9c-6,0-8.3-3.6-8.6-6.1h6c0.7,1.7,2.7,1.7,3,1.7c0.7,0,4.2-0.1,4.2-4.7v-0.5h-0.1   c-0.5,1-2,2.5-4.7,2.5c-4.7,0-8.7-3.5-8.7-9.1c0-5.9,4.2-9.3,8.7-9.3c1.9,0,3.8,0.7,4.8,2.2h0.1v-1.6h5.2v15.2c0,2.6-0.2,4.2-1,5.7   C503.1,82,500,83.9,495.7,83.9"
   class="st0" />
	<path
   id="path32"
   d="M516.5,62.7c-2.7,0-3.7,1.9-3.9,3h7.8C520.2,64.6,519.2,62.7,516.5,62.7 M516.6,76.8c-5,0-9.2-4-9.2-9.1   c0-4.8,3.8-9.3,9.1-9.3c5.3,0,9.1,4.2,9.1,9.4c0,0.7-0.1,1-0.1,1.4h-12.9c0.3,2.1,2,3.3,4,3.3c1.6,0,2.4-0.7,3.1-1.6h5.3   c-0.8,1.9-2.1,3.4-3.5,4.4C520.1,76.2,518.3,76.8,516.6,76.8"
   class="st0" />
	<path
   id="path34"
   d="M543.7,76.2h-5.2v-9.4c0-1.2,0-3.6-2.7-3.6c-3,0-3,2.6-3,3.6v9.4h-5.2V58.9h4.8v1.8h0.1   c0.5-0.8,1.6-2.4,4.7-2.4c1.7,0,3.5,0.7,4.4,1.5c0.9,0.8,2,2.2,2,5.6V76.2"
   class="st0" />
	<path
   id="path36"
   d="M554.7,76.8c-5.2,0-9.2-4.1-9.2-9.2c0-5.1,4-9.2,9.1-9.2c4.6,0,8.3,3,9.2,7.3h-5.2c-0.6-1.2-1.6-2.4-3.7-2.4   c-0.1,0-0.1,0-0.2,0c-2.3,0-3.9,2-3.9,4.4c0,2.5,1.6,4.4,4.1,4.4c2.1,0,3.2-1.2,3.7-2.3h5.3C562.8,73.6,559.4,76.8,554.7,76.8"
   class="st0" />
	<polygon
   id="polygon38"
   points="572.5,82 567,82 569.8,75.3 563.3,58.9 568.9,58.9 572.3,68.9 572.4,68.9 575.7,58.9 581.1,58.9  "
   class="st0" />
</g>
</svg>
